PathFileType	4	(x/y/z)	A01_PREF_T0015.trc
DataRate	CameraRate	NumFrames	NumMarkers	Units	OrigDataRate	OrigDataStartFrame	OrigNumFrames
240	240	4	48	mm	240	73	288
Frame#	Time	TOP_HEAD			R_AC			L_AC			R_ASIS			L_ASIS			R_PSIS			L_PSIS			SACRAL			L_IC			R_IC			L_GT			R_GT			R_LAT_KNEE			R_MED_KNEE			L_MED_KNEE			L_LAT_KNEE			R_TOE			L_TOE			R_1ST_MET			L_1ST_MET			L_5TH_MET			R_5TH_MET			R_LAT_ANK			R_MED_ANK			L_MED_ANK			L_LAT_ANK			L_HEEL_SUP			R_HEEL_SUP			L_HEEL_LAT			R_HEEL_LAT			L_HEEL_MED			R_HEEL_MED			R_SHANK_PROX_POST			R_SHANK_PROX_ANT			R_SHANK_DIST_ANT			R_SHANK_DIST_POST			R_THIGH_PROX_POST			R_THIGH_PROX_ANT			R_THIGH_DIST_ANT			R_THIGH_DIST_POST			L_SHANK_PROX_ANT			L_SHANK_PROX_POST			L_SHANK_DIST_POST			L_SHANK_DIST_ANT			L_THIGH_PROX_ANT			L_THIGH_PROX_POST			L_THIGH_DIST_POST			L_THIGH_DIST_ANT			
		X1	Y1	Z1	X2	Y2	Z2	X3	Y3	Z3	X4	Y4	Z4	X5	Y5	Z5	X6	Y6	Z6	X7	Y7	Z7	X8	Y8	Z8	X9	Y9	Z9	X10	Y10	Z10	X11	Y11	Z11	X12	Y12	Z12	X13	Y13	Z13	X14	Y14	Z14	X15	Y15	Z15	X16	Y16	Z16	X17	Y17	Z17	X18	Y18	Z18	X19	Y19	Z19	X20	Y20	Z20	X21	Y21	Z21	X22	Y22	Z22	X23	Y23	Z23	X24	Y24	Z24	X25	Y25	Z25	X26	Y26	Z26	X27	Y27	Z27	X28	Y28	Z28	X29	Y29	Z29	X30	Y30	Z30	X31	Y31	Z31	X32	Y32	Z32	X33	Y33	Z33	X34	Y34	Z34	X35	Y35	Z35	X36	Y36	Z36	X37	Y37	Z37	X38	Y38	Z38	X39	Y39	Z39	X40	Y40	Z40	X41	Y41	Z41	X42	Y42	Z42	X43	Y43	Z43	X44	Y44	Z44	X45	Y45	Z45	X46	Y46	Z46	X47	Y47	Z47	X48	Y48	Z48	

73	0.30105	-228.01	1803.6	308.26	-405.76	1561.4	521.3	-427.03	1541.9	61.234	-415.92	1094	523.44	-388.16	1034	174.57	-621.6	1084.7	384.97	-606.93	1090.3	252.98	-629.67	1057.2	317.35	-416.11	1145.2	124.99	-452.31	1203.9	515.71	-447.36	952.28	132.59	-473.86	982.33	563.15	-416.39	580.14	543.05	-367.43	559.94	415.18	-386.69	562.02	362.34	-401.38	566.71	204.98	-645.27	70.426	438.43	-255.96	83.363	276.55	-704.41	127.05	385.62	-337.32	57.159	330.9	-362.99	47.095	200.7	-742.21	141.26	513.66	-755.1	278.66	490.26	-730.53	276.37	391.1	-460.74	128.3	308.09	-490.1	120.48	240.35	-579.59	75.647	278.85	-831.51	334.07	422.24	-566.89	47.096	247.41	-849.51	314.31	454.81	-558.73	45.728	311.41	-845.56	311.98	395.31	-591.27	520.57	527.56	-551.67	465.2	554.87	-599.27	410.14	533.68	-635.53	450.88	516.64	-487.64	835.96	554.22	-426.03	869.25	560.06	-402.12	779.25	562.72	-463.45	749.33	553.22	-362.52	481.15	220.48	-417.15	484.98	208.1	-428.65	423.75	217.31	-375.26	426.7	228.08	-371.33	816.46	172.95	-441.67	815.88	156.32	-425.16	742.32	170.9	-360.78	744.1	185.46
74	0.30523	-223.46	1804.4	308.89	-401.48	1562	521.44	-421.86	1542.4	61.277	-410.91	1094.9	523.05	-383.19	1034.3	174.31	-616.48	1085.3	384.79	-601.82	1090.9	252.78	-624.55	1057.8	317.17	-411.18	1145.8	124.9	-447.19	1204.4	515.66	-442.6	952.68	132.37	-468.18	983.15	562.92	-406.73	581.35	542.94	-357.78	561.46	415.26	-384.43	561.96	362.3	-399.14	566.71	204.95	-627.31	71.416	439.31	-255.84	83.232	276.51	-687.99	126.04	386.24	-337.24	57.143	330.87	-362.95	47.092	200.73	-725.97	140	514.28	-742.43	276.7	490.15	-717.85	274.58	390.9	-460.31	128.56	308.04	-489.74	120.86	240.36	-579.42	76.106	278.87	-820.37	329.91	421.9	-566.81	47.496	247.45	-837.82	309.85	454.57	-558.74	46.192	311.42	-833.86	307.29	395.08	-581.11	520.09	527.65	-540.93	465.14	554.89	-587.94	409.58	533.73	-624.67	449.97	516.73	-480.47	836.57	554.27	-418.76	870.39	559.87	-394.39	780.7	562.74	-455.43	750.17	553.37	-360.65	480.97	220.46	-415.26	485.04	208.08	-427.04	423.87	217.28	-373.63	426.59	228.05	-367.34	816.41	172.88	-437.65	816.26	156.18	-421.58	742.6	170.81	-357.21	744.01	185.43
75	0.30941	-218.9	1805.2	309.53	-397.19	1562.7	521.58	-416.69	1543	61.335	-405.92	1095.7	522.65	-378.23	1034.7	174.06	-611.38	1085.9	384.62	-596.74	1091.4	252.58	-619.45	1058.3	317.01	-406.26	1146.3	124.8	-442.07	1204.9	515.61	-437.86	953.05	132.15	-462.55	983.98	562.69	-397.17	582.58	542.8	-348.08	563.04	415.32	-382.15	561.9	362.26	-396.91	566.71	204.93	-609.21	72.28	440.16	-255.71	83.095	276.48	-671.37	124.87	386.84	-337.17	57.123	330.84	-362.91	47.089	200.76	-709.53	138.55	514.89	-729.6	274.47	490.04	-705	272.52	390.72	-459.86	128.84	307.98	-489.37	121.25	240.37	-579.24	76.579	278.9	-809	325.42	421.57	-566.73	47.91	247.49	-825.9	305.07	454.36	-558.76	46.675	311.44	-821.93	302.28	394.86	-570.99	519.48	527.72	-530.2	464.98	554.9	-576.57	408.89	533.78	-613.8	448.89	516.8	-473.39	837.19	554.31	-411.59	871.53	559.69	-386.77	782.17	562.75	-447.52	751.03	553.5	-358.78	480.79	220.45	-413.38	485.11	208.06	-425.43	424	217.26	-371.99	426.49	228.02	-363.37	816.36	172.82	-433.64	816.64	156.06	-418.02	742.88	170.73	-353.67	743.91	185.41
76	0.31359	-214.35	1806	310.19	-392.87	1563.4	521.73	-411.49	1543.6	61.408	-400.93	1096.5	522.23	-373.29	1035	173.81	-606.29	1086.5	384.46	-591.67	1092	252.4	-614.36	1058.8	316.86	-401.33	1146.9	124.7	-436.94	1205.5	515.59	-433.14	953.41	131.95	-456.96	984.83	562.47	-387.71	583.81	542.65	-338.38	564.68	415.35	-379.85	561.83	362.22	-394.67	566.72	204.93	-590.97	73.023	440.99	-255.58	82.951	276.44	-654.57	123.55	387.43	-337.1	57.098	330.8	-362.87	47.086	200.79	-692.93	136.9	515.48	-716.61	271.99	489.95	-691.98	270.23	390.56	-459.39	129.12	307.92	-488.99	121.66	240.37	-579.07	77.064	278.92	-797.41	320.62	421.27	-566.64	48.338	247.53	-813.76	299.98	454.17	-558.79	47.176	311.46	-809.76	296.98	394.66	-560.9	518.73	527.76	-519.48	464.72	554.89	-565.17	408.07	533.84	-602.91	447.66	516.86	-466.4	837.84	554.34	-404.54	872.68	559.51	-379.25	783.64	562.76	-439.71	751.92	553.63	-356.92	480.62	220.44	-411.49	485.18	208.05	-423.81	424.14	217.25	-370.35	426.4	228.01	-359.43	816.31	172.78	-429.64	817.01	155.94	-414.45	743.16	170.65	-350.14	743.81	185.4
